<svg xmlns="http://www.w3.org/2000/svg" width="16" height="16">
	<path d="M10 2C10 3.1 8 6 8 6 8 6 6 3.1 6 2 6 0.9 6.9 0 8 0c1.1 0 2 0.9 2 2zM16 8c0 1.1-0.9 2-2 2-1.1 0-4-2-4-2 0 0 2.9-2 4-2 1.1 0 2 0.9 2 2zM10 14c0 1.1-0.9 2-2 2-1.1 0-2-0.9-2-2 0-1.1 2-4 2-4 0 0 2 2.9 2 4zM6 8C6 8 3.1 10 2 10 0.9 10 0 9.1 0 8 0 6.9 0.9 6 2 6 3.1 6 6 8 6 8z" style="fill:#333;opacity:.5">
		<animateTransform attributeName="transform" type="rotate" from="0 8 8" to="360 8 8" repeatCount="indefinite" dur="1.5s"/>
	</path>
</svg>
