<svg xmlns="http://www.w3.org/2000/svg" width="16" height="16">
	<path d="M10 2A2 2 0 1 1 6 2 2 2 0 1 1 10 2zM14 4a2 2 0 1 1-4 0 2 2 0 1 1 4 0zM16 8a2 2 0 1 1-4 0 2 2 0 1 1 4 0zM14 12a2 2 0 1 1-4 0 2 2 0 1 1 4 0zM10 14a2 2 0 1 1-4 0 2 2 0 1 1 4 0zM6 4A2 2 0 1 1 2 4 2 2 0 1 1 6 4zM4 8A2 2 0 1 1 0 8 2 2 0 1 1 4 8zM6 12a2 2 0 1 1-4 0 2 2 0 1 1 4 0z" style="fill:#222;opacity:0.5">
		<animateTransform attributeName="transform" type="rotate" from="0 8 8" to="360 8 8" repeatCount="indefinite" dur="2s"/>
	</path>
</svg>
